# xmcd
# 
# Track frame offsets:
#     183
#     13690
#     25625
#     39343
#     49428
#     62378
#     74058
#     84145
#     95118
#     110228
#     120958
#     133225
#     147318
#     157965
#     171413
#     180970
# 
# Disc length: 2538
# 
# Revision: 5
# Processed by: cddbd v1.5.2PL0 Copyright (c) Steve Scherf et al.
# Submitted via: fre:ac v1.0.17
# 
DISCID=d809e810
DTITLE=Various Artist - Country Music Express Vol.1
DYEAR=0
DGENRE=Country
TTITLE0=Lynn Anderson - Rose Garden
TTITLE1=Donna Fargo - U.S. Of America
TTITLE2=Willie Nelson - A Moment Isn't Very Long
TTITLE3=Dolly Parton - Release Me
TTITLE4=Kenny Rogers - Ruby, Don't Take Your Love To Town
TTITLE5=Billie Jo Spears - Try A Little Kindness
TTITLE6=Don Williams - Take My Hand For A While
TTITLE7=Johnny Cash - I Love You Because
TTITLE8=Kenny Rogers - For The Good Times
TTITLE9=Waylon Jennings - Burning Memories
TTITLE10=Oak Ridge Boys - Without God
TTITLE11=Billie Jo Spears - Mr. Walker, It's All Over
TTITLE12=Johnny Cash - Cold Cold Heart
TTITLE13=Don Williams - Where Do We Go From Here
TTITLE14=Lynn Anderson - Snowbird
TTITLE15=Willie Nelson - Building Heartaches
EXTD=
EXTT0=
EXTT1=
EXTT2=
EXTT3=
EXTT4=
EXTT5=
EXTT6=
EXTT7=
EXTT8=
EXTT9=
EXTT10=
EXTT11=
EXTT12=
EXTT13=
EXTT14=
EXTT15=
PLAYORDER=
